{"asset":{"generator":"3D Builder","version":"2.0"},"scene":0,"scenes":[{"nodes":[0]}],"nodes":[{"children":[1,2,3,4,5,6,7,8,9,10,11,12,13]},{"mesh":0,"matrix":[0.99999994039535522,0,0,0,0,-1.1920928244535389E-7,-0.99999982118606567,0,0,0.99999982118606567,-1.1920928244535389E-7,0,0,0,0,1]},{"mesh":1,"matrix":[0.99999994039535522,0,0,0,0,-1.1920928244535389E-7,-0.99999982118606567,0,0,0.99999982118606567,-1.1920928244535389E-7,0,0,0,0,1]},{"mesh":2,"matrix":[0.99999994039535522,0,0,0,0,-1.1920928244535389E-7,-0.99999982118606567,0,0,0.99999982118606567,-1.1920928244535389E-7,0,0,0,0,1]},{"mesh":3,"matrix":[0.99999994039535522,0,0,0,0,-1.1920928244535389E-7,-0.99999982118606567,0,0,0.99999982118606567,-1.1920928244535389E-7,0,0,0,0,1]},{"mesh":4,"matrix":[0.99999994039535522,0,0,0,0,-1.1920928244535389E-7,-0.99999982118606567,0,0,0.99999982118606567,-1.1920928244535389E-7,0,0,0,0,1]},{"mesh":5,"matrix":[0.99999994039535522,0,0,0,0,-1.1920928244535389E-7,-0.99999982118606567,0,0,0.99999982118606567,-1.1920928244535389E-7,0,0,0,0,1]},{"mesh":6,"matrix":[0.99999994039535522,0,0,0,0,-1.1920928244535389E-7,-0.99999982118606567,0,0,0.99999982118606567,-1.1920928244535389E-7,0,0,0,0,1]},{"mesh":7,"matrix":[0.99999994039535522,0,0,0,0,-1.1920928244535389E-7,-0.99999982118606567,0,0,0.99999982118606567,-1.1920928244535389E-7,0,0,0,0,1]},{"mesh":8,"matrix":[0.99999994039535522,0,0,0,0,-1.1920928244535389E-7,-0.99999982118606567,0,0,0.99999982118606567,-1.1920928244535389E-7,0,0,0,0,1]},{"mesh":9,"matrix":[0.99999994039535522,0,0,0,0,-1.1920928244535389E-7,-0.99999982118606567,0,0,0.99999982118606567,-1.1920928244535389E-7,0,0,0,0,1]},{"mesh":10,"matrix":[0.99999994039535522,0,0,0,0,-1.1920928244535389E-7,-0.99999982118606567,0,0,0.99999982118606567,-1.1920928244535389E-7,0,0,0,0,1]},{"mesh":11,"matrix":[0.99999994039535522,0,0,0,0,-1.1920928244535389E-7,-0.99999982118606567,0,0,0.99999982118606567,-1.1920928244535389E-7,0,0,0,0,1]},{"mesh":12,"matrix":[0.99999994039535522,0,0,0,0,-1.1920928244535389E-7,-0.99999982118606567,0,0,0.99999982118606567,-1.1920928244535389E-7,0,0,0,0,1]}],"meshes":[{"primitives":[{"attributes":{"POSITION":0,"COLOR_0":3},"mode":4,"indices":4},{"attributes":{"POSITION":1,"TEXCOORD_0":2},"mode":4,"indices":5,"material":0}]},{"primitives":[{"attributes":{"POSITION":6,"COLOR_0":7},"mode":4,"indices":8}]},{"primitives":[{"attributes":{"POSITION":9,"TEXCOORD_0":10},"mode":4,"indices":11,"material":0}]},{"primitives":[{"attributes":{"POSITION":12,"TEXCOORD_0":13},"mode":4,"indices":14,"material":0}]},{"primitives":[{"attributes":{"POSITION":15,"COLOR_0":18},"mode":4,"indices":19},{"attributes":{"POSITION":16,"TEXCOORD_0":17},"mode":4,"indices":20,"material":0}]},{"primitives":[{"attributes":{"POSITION":21,"TEXCOORD_0":22},"mode":4,"indices":23,"material":0}]},{"primitives":[{"attributes":{"POSITION":24,"TEXCOORD_0":25},"mode":4,"indices":26,"material":0}]},{"primitives":[{"attributes":{"POSITION":27,"TEXCOORD_0":28},"mode":4,"indices":29,"material":0}]},{"primitives":[{"attributes":{"POSITION":30,"TEXCOORD_0":31},"mode":4,"indices":32,"material":0}]},{"primitives":[{"attributes":{"POSITION":33,"COLOR_0":34},"mode":4,"indices":35}]},{"primitives":[{"attributes":{"POSITION":36,"COLOR_0":37},"mode":4,"indices":38}]},{"primitives":[{"attributes":{"POSITION":39,"COLOR_0":40},"mode":4,"indices":41}]},{"primitives":[{"attributes":{"POSITION":42,"COLOR_0":43},"mode":4,"indices":44}]}],"materials":[{"pbrMetallicRoughness":{"baseColorFactor":[1,1,1,1],"metallicFactor":0,"roughnessFactor":1,"baseColorTexture":{"index":0,"texCoord":0}},"alphaMode":"OPAQUE"}],"textures":[{"source":0,"sampler":0}],"images":[{"uri":"Capture.PNG"}],"samplers":[{"magFilter":9729,"wrapS":10497,"wrapT":10497}],"accessors":[{"bufferView":0,"byteOffset":0,"count":44,"componentType":5126,"type":"VEC3","min":[0.015494010411202908,-0.0145718427374959,0],"max":[0.14173209667205811,-0.0039038753602653742,0.015849610790610313]},{"bufferView":0,"byteOffset":528,"count":28,"componentType":5126,"type":"VEC3","min":[0.015494010411202908,-0.0145718427374959,0],"max":[0.14173209667205811,-0.0039038753602653742,0.015849610790610313]},{"bufferView":1,"byteOffset":0,"count":28,"componentType":5126,"type":"VEC2"},{"bufferView":2,"byteOffset":0,"count":44,"componentType":5121,"type":"VEC4","normalized":true},{"bufferView":3,"byteOffset":0,"count":96,"componentType":5125,"type":"SCALAR"},{"bufferView":3,"byteOffset":384,"count":84,"componentType":5125,"type":"SCALAR"},{"bufferView":4,"byteOffset":0,"count":31,"componentType":5126,"type":"VEC3","min":[0,-0.0145718427374959,0],"max":[0.014986009337008,0.031656183302402496,0.015849610790610313]},{"bufferView":5,"byteOffset":0,"count":31,"componentType":5121,"type":"VEC4","normalized":true},{"bufferView":6,"byteOffset":0,"count":96,"componentType":5125,"type":"SCALAR"},{"bufferView":7,"byteOffset":0,"count":24,"componentType":5126,"type":"VEC3","min":[0.12115807086229324,0.0054941303096711636,0],"max":[0.13589008152484894,0.020988179370760918,0.015849610790610313]},{"bufferView":8,"byteOffset":0,"count":24,"componentType":5126,"type":"VEC2"},{"bufferView":9,"byteOffset":0,"count":132,"componentType":5125,"type":"SCALAR"},{"bufferView":10,"byteOffset":0,"count":22,"componentType":5126,"type":"VEC3","min":[0.087122060358524323,0.0054941303096711636,0],"max":[0.10007606446743011,0.020988179370760918,0.015849610790610313]},{"bufferView":11,"byteOffset":0,"count":22,"componentType":5126,"type":"VEC2"},{"bufferView":12,"byteOffset":0,"count":120,"componentType":5125,"type":"SCALAR"},{"bufferView":13,"byteOffset":0,"count":6,"componentType":5126,"type":"VEC3","min":[0.077216051518917084,0.0067641325294971466,0],"max":[0.085852056741714478,0.012860176153481007,0.015849610790610313]},{"bufferView":13,"byteOffset":72,"count":26,"componentType":5126,"type":"VEC3","min":[0.075438052415847778,0.0054941303096711636,0],"max":[0.085852056741714478,0.020988179370760918,0.015849610790610313]},{"bufferView":14,"byteOffset":0,"count":26,"componentType":5126,"type":"VEC2"},{"bufferView":15,"byteOffset":0,"count":6,"componentType":5121,"type":"VEC4","normalized":true},{"bufferView":16,"byteOffset":0,"count":12,"componentType":5125,"type":"SCALAR"},{"bufferView":16,"byteOffset":48,"count":132,"componentType":5125,"type":"SCALAR"},{"bufferView":17,"byteOffset":0,"count":32,"componentType":5126,"type":"VEC3","min":[0.053594034165143967,0.0054941303096711636,0],"max":[0.072390049695968628,0.020988179370760918,0.015849610790610313]},{"bufferView":18,"byteOffset":0,"count":32,"componentType":5126,"type":"VEC2"},{"bufferView":19,"byteOffset":0,"count":192,"componentType":5125,"type":"SCALAR"},{"bufferView":20,"byteOffset":0,"count":30,"componentType":5126,"type":"VEC3","min":[0.032004021108150482,0.0054941303096711636,0],"max":[0.050546035170555115,0.020988179370760918,0.015849610790610313]},{"bufferView":21,"byteOffset":0,"count":30,"componentType":5126,"type":"VEC2"},{"bufferView":22,"byteOffset":0,"count":168,"componentType":5125,"type":"SCALAR"},{"bufferView":23,"byteOffset":0,"count":26,"componentType":5126,"type":"VEC3","min":[0.018542012199759483,0.0054941303096711636,0],"max":[0.028956018388271332,0.020988179370760918,0.015849610790610313]},{"bufferView":24,"byteOffset":0,"count":26,"componentType":5126,"type":"VEC2"},{"bufferView":25,"byteOffset":0,"count":144,"componentType":5125,"type":"SCALAR"},{"bufferView":26,"byteOffset":0,"count":66,"componentType":5126,"type":"VEC3","min":[0.10160006582736969,0.0052401302382349968,0],"max":[0.11861807107925415,0.021242180839180946,0.015849610790610313]},{"bufferView":27,"byteOffset":0,"count":66,"componentType":5126,"type":"VEC2"},{"bufferView":28,"byteOffset":0,"count":396,"componentType":5125,"type":"SCALAR"},{"bufferView":29,"byteOffset":0,"count":31,"componentType":5126,"type":"VEC3","min":[0.14224010705947876,-0.0145718427374959,0],"max":[0.15824210643768311,0.031656183302402496,0.015849610790610313]},{"bufferView":30,"byteOffset":0,"count":31,"componentType":5121,"type":"VEC4","normalized":true},{"bufferView":31,"byteOffset":0,"count":96,"componentType":5125,"type":"SCALAR"},{"bufferView":32,"byteOffset":0,"count":19,"componentType":5126,"type":"VEC3","min":[0.078740045428276062,0.031148185953497887,0],"max":[0.14173209667205811,0.031656183302402496,0.015849610790610313]},{"bufferView":33,"byteOffset":0,"count":19,"componentType":5121,"type":"VEC4","normalized":true},{"bufferView":34,"byteOffset":0,"count":48,"componentType":5125,"type":"SCALAR"},{"bufferView":35,"byteOffset":0,"count":19,"componentType":5126,"type":"VEC3","min":[0.015494010411202908,0.031148185953497887,0],"max":[0.0782320499420166,0.031656183302402496,0.015849610790610313]},{"bufferView":36,"byteOffset":0,"count":19,"componentType":5121,"type":"VEC4","normalized":true},{"bufferView":37,"byteOffset":0,"count":48,"componentType":5125,"type":"SCALAR"},{"bufferView":38,"byteOffset":0,"count":8,"componentType":5126,"type":"VEC3","min":[0.0014971650671213865,-0.013138397596776485,0],"max":[0.15736207365989685,0.029305918142199516,0.015199820511043072]},{"bufferView":39,"byteOffset":0,"count":8,"componentType":5121,"type":"VEC4","normalized":true},{"bufferView":40,"byteOffset":0,"count":36,"componentType":5125,"type":"SCALAR"}],"bufferViews":[{"buffer":0,"byteOffset":0,"byteLength":864,"byteStride":12,"target":34962},{"buffer":0,"byteOffset":864,"byteLength":224,"byteStride":8,"target":34962},{"buffer":0,"byteOffset":1088,"byteLength":176,"byteStride":4,"target":34962},{"buffer":0,"byteOffset":1264,"byteLength":720,"target":34963},{"buffer":0,"byteOffset":1984,"byteLength":372,"byteStride":12,"target":34962},{"buffer":0,"byteOffset":2356,"byteLength":124,"byteStride":4,"target":34962},{"buffer":0,"byteOffset":2480,"byteLength":384,"target":34963},{"buffer":0,"byteOffset":2864,"byteLength":288,"byteStride":12,"target":34962},{"buffer":0,"byteOffset":3152,"byteLength":192,"byteStride":8,"target":34962},{"buffer":0,"byteOffset":3344,"byteLength":528,"target":34963},{"buffer":0,"byteOffset":3872,"byteLength":264,"byteStride":12,"target":34962},{"buffer":0,"byteOffset":4136,"byteLength":176,"byteStride":8,"target":34962},{"buffer":0,"byteOffset":4312,"byteLength":480,"target":34963},{"buffer":0,"byteOffset":4792,"byteLength":384,"byteStride":12,"target":34962},{"buffer":0,"byteOffset":5176,"byteLength":208,"byteStride":8,"target":34962},{"buffer":0,"byteOffset":5384,"byteLength":24,"byteStride":4,"target":34962},{"buffer":0,"byteOffset":5408,"byteLength":576,"target":34963},{"buffer":0,"byteOffset":5984,"byteLength":384,"byteStride":12,"target":34962},{"buffer":0,"byteOffset":6368,"byteLength":256,"byteStride":8,"target":34962},{"buffer":0,"byteOffset":6624,"byteLength":768,"target":34963},{"buffer":0,"byteOffset":7392,"byteLength":360,"byteStride":12,"target":34962},{"buffer":0,"byteOffset":7752,"byteLength":240,"byteStride":8,"target":34962},{"buffer":0,"byteOffset":7992,"byteLength":672,"target":34963},{"buffer":0,"byteOffset":8664,"byteLength":312,"byteStride":12,"target":34962},{"buffer":0,"byteOffset":8976,"byteLength":208,"byteStride":8,"target":34962},{"buffer":0,"byteOffset":9184,"byteLength":576,"target":34963},{"buffer":0,"byteOffset":9760,"byteLength":792,"byteStride":12,"target":34962},{"buffer":0,"byteOffset":10552,"byteLength":528,"byteStride":8,"target":34962},{"buffer":0,"byteOffset":11080,"byteLength":1584,"target":34963},{"buffer":0,"byteOffset":12664,"byteLength":372,"byteStride":12,"target":34962},{"buffer":0,"byteOffset":13036,"byteLength":124,"byteStride":4,"target":34962},{"buffer":0,"byteOffset":13160,"byteLength":384,"target":34963},{"buffer":0,"byteOffset":13544,"byteLength":228,"byteStride":12,"target":34962},{"buffer":0,"byteOffset":13772,"byteLength":76,"byteStride":4,"target":34962},{"buffer":0,"byteOffset":13848,"byteLength":192,"target":34963},{"buffer":0,"byteOffset":14040,"byteLength":228,"byteStride":12,"target":34962},{"buffer":0,"byteOffset":14268,"byteLength":76,"byteStride":4,"target":34962},{"buffer":0,"byteOffset":14344,"byteLength":192,"target":34963},{"buffer":0,"byteOffset":14536,"byteLength":96,"byteStride":12,"target":34962},{"buffer":0,"byteOffset":14632,"byteLength":32,"byteStride":4,"target":34962},{"buffer":0,"byteOffset":14664,"byteLength":144,"target":34963}],"buffers":[{"byteLength":14808,"uri":"Capture.bin"}]}